<?xml version="1.0" encoding="UTF-8" standalone="no"?>
<!-- Created with Inkscape (http://www.inkscape.org/) -->

<svg
   xmlns:dc="http://purl.org/dc/elements/1.1/"
   xmlns:cc="http://creativecommons.org/ns#"
   xmlns:rdf="http://www.w3.org/1999/02/22-rdf-syntax-ns#"
   xmlns:svg="http://www.w3.org/2000/svg"
   xmlns="http://www.w3.org/2000/svg"
   xmlns:sodipodi="http://sodipodi.sourceforge.net/DTD/sodipodi-0.dtd"
   xmlns:inkscape="http://www.inkscape.org/namespaces/inkscape"
   width="58"
   height="64"
   viewBox="0 0 15.345833 16.933333"
   version="1.1"
   id="svg8"
   inkscape:version="0.92.3 (unknown)"
   sodipodi:docname="icon-58x64.svg"
   inkscape:export-filename="/home/itserg/code/fb/giganotes-desktop/src/assets/icon58x64.png"
   inkscape:export-xdpi="96"
   inkscape:export-ydpi="96">
  <defs
     id="defs2" />
  <sodipodi:namedview
     id="base"
     pagecolor="#ffffff"
     bordercolor="#666666"
     borderopacity="1.0"
     inkscape:pageopacity="0.0"
     inkscape:pageshadow="2"
     inkscape:zoom="1.55"
     inkscape:cx="-129.03226"
     inkscape:cy="242.13981"
     inkscape:document-units="mm"
     inkscape:current-layer="layer1"
     showgrid="true"
     inkscape:window-width="1920"
     inkscape:window-height="1052"
     inkscape:window-x="0"
     inkscape:window-y="0"
     inkscape:window-maximized="1"
     inkscape:pagecheckerboard="false"
     borderlayer="false"
     showguides="true"
     units="px">
    <inkscape:grid
       type="xygrid"
       id="grid4541" />
  </sodipodi:namedview>
  <metadata
     id="metadata5">
    <rdf:RDF>
      <cc:Work
         rdf:about="">
        <dc:format>image/svg+xml</dc:format>
        <dc:type
           rdf:resource="http://purl.org/dc/dcmitype/StillImage" />
        <dc:title></dc:title>
      </cc:Work>
    </rdf:RDF>
  </metadata>
  <g
     inkscape:label="Layer 1"
     inkscape:groupmode="layer"
     id="layer1"
     transform="translate(0,-280.06666)">
    <text
       xml:space="preserve"
       style="font-style:normal;font-weight:normal;font-size:10.58333302px;line-height:1.25;font-family:sans-serif;letter-spacing:0px;word-spacing:0px;fill:#000000;fill-opacity:1;stroke:none;stroke-width:0.26458332"
       x="39.057541"
       y="255.42262"
       id="text4629"><tspan
         sodipodi:role="line"
         id="tspan4627"
         x="39.057541"
         y="264.78638"
         style="stroke-width:0.26458332" /></text>
    <flowRoot
       xml:space="preserve"
       id="flowRoot4683"
       style="font-style:normal;font-weight:normal;font-size:40px;line-height:1.25;font-family:sans-serif;letter-spacing:0px;word-spacing:0px;fill:#000000;fill-opacity:1;stroke:none"
       transform="matrix(0.26458333,0,0,0.26458333,0,232)"><flowRegion
         id="flowRegion4685"><rect
           id="rect4687"
           width="185"
           height="120"
           x="309"
           y="27.669296" /></flowRegion><flowPara
         id="flowPara4689" /></flowRoot>    <g
       transform="matrix(0.01430308,0,0,0.01421205,1.4691989,280.87426)"
       id="g32">
      <g
         transform="matrix(0.1,0,0,-0.1,0,511)"
         id="g30">
        <path
           inkscape:connector-curvature="0"
           d="m 2439.1,4968.7 c -39.3,-39.3 -41.4,-68.2 -41.4,-535.5 V 3939 l -49.6,-31 c -72.4,-47.6 -122,-169.5 -109.6,-275 12.4,-117.8 78.6,-204.7 190.2,-246 306,-117.9 550,258.4 322.5,494.1 l -64.1,66.2 v 490 c 0,463.1 -2.1,492.1 -41.4,531.4 -22.7,22.7 -68.2,41.3 -103.4,41.3 -35.2,0 -80.4,-18.6 -103.2,-41.3 z"
           id="path4" />
        <path
           inkscape:connector-curvature="0"
           d="m 4134.5,4968.7 c -39.3,-39.3 -41.3,-68.2 -41.3,-535.5 V 3939 l -49.6,-31 c -72.4,-47.6 -122,-169.5 -109.6,-275 12.4,-117.8 78.6,-204.7 190.2,-246 306,-117.9 550,258.4 322.5,494.1 l -64.1,66.2 v 490 c 0,463.1 -2.1,492.1 -41.4,531.4 -22.7,22.7 -68.2,41.3 -103.4,41.3 -35.2,0 -80.6,-18.6 -103.3,-41.3 z"
           id="path6" />
        <path
           inkscape:connector-curvature="0"
           d="m 5850.5,4968.7 c -39.3,-39.3 -41.3,-68.2 -41.3,-535.5 V 3939 l -49.6,-31 c -72.4,-47.6 -122,-169.5 -109.6,-275 12.4,-117.8 78.6,-204.7 190.2,-246 306,-117.9 550,258.4 322.5,494.1 l -64.1,66.2 v 490 c 0,463.1 -2.1,492.1 -41.3,531.4 -22.7,22.7 -68.2,41.3 -103.4,41.3 -35.2,0 -80.7,-18.6 -103.4,-41.3 z"
           id="path8" />
        <path
           inkscape:connector-curvature="0"
           d="M 1192.4,4431.1 C 1049.7,4375.3 921.6,4261.6 859.5,4137.5 L 805.8,4030 V -125.7 -4283.4 l 60,-124.1 c 72.4,-150.9 181.9,-258.4 332.9,-328.7 l 113.7,-53.8 h 2948.3 2946.2 l 107.5,53.8 c 128.2,64.1 239.9,192.3 295.7,339.1 37.2,99.2 39.3,171.6 39.3,1525.8 V -1451 l -140.6,-279.1 -138.5,-279.1 -10.5,-1126.8 c -10.3,-1079.2 -12.4,-1128.8 -51.7,-1197.1 -22.7,-39.3 -68.2,-88.9 -99.2,-113.7 l -57.9,-43.4 -2857.3,-6.2 c -3173.6,-6.2 -2964.8,-14.5 -3093,130.2 -35.2,39.3 -72.4,107.5 -84.8,148.9 -16.5,55.8 -20.7,1255 -16.5,4135 l 6.2,4056.4 43.4,57.9 c 93,126.1 148.9,140.6 552,146.8 l 366,8.3 v 142.7 142.7 h -386.6 c -328.8,-2.1 -403.2,-8.3 -488,-41.4 z"
           id="path10" />
        <path
           inkscape:connector-curvature="0"
           d="M 3018,4327.7 V 4183 h 372.2 372.1 v 144.7 144.7 H 3390.2 3018 Z"
           id="path12" />
        <path
           inkscape:connector-curvature="0"
           d="M 4713.4,4327.7 V 4183 h 382.5 382.5 v 144.7 144.7 h -382.5 -382.5 z"
           id="path14" />
        <path
           inkscape:connector-curvature="0"
           d="m 6429.4,4331.9 v -144.7 l 368,-8.3 c 399,-6.2 438.3,-16.5 514.8,-134.4 33.1,-49.6 37.2,-124 43.4,-649.2 l 6.2,-595.4 74.4,49.6 c 39.3,28.9 105.4,55.8 144.7,64.1 l 70.3,12.4 -6.2,583 c -6.2,550 -8.3,585.1 -51.7,663.7 -51.7,97.2 -153,196.4 -254.3,250.2 -62,33.1 -130.2,39.3 -490,45.5 l -419.7,6.2 v -142.7 z"
           id="path16" />
        <path
           inkscape:connector-curvature="0"
           d="m 8217.8,3070.7 c -95.1,-22.7 -150.9,-88.9 -248.1,-303.9 -78.6,-171.6 -107.5,-215 -132.3,-204.7 -138.5,57.9 -148.8,60 -202.6,28.9 -41.3,-24.8 -188.1,-314.3 -669.9,-1312.9 -339.1,-705 -616.1,-1306.7 -618.2,-1335.6 0,-101.3 113.7,-157.2 186.1,-91 20.7,18.6 285.3,550 589.2,1184.7 303.9,632.7 574.8,1174.4 599.6,1201.2 60,62 31,72.4 653.3,-231.6 l 490,-237.8 155.1,324.6 c 84.8,177.8 161.3,343.2 169.5,370.1 18.6,62 -20.7,173.7 -78.6,225.4 -53.8,47.5 -725.7,370.1 -800.1,384.5 -28.9,4.3 -70.3,4.3 -93,-1.9 z"
           id="path18" />
        <path
           inkscape:connector-curvature="0"
           d="m 2149.7,1929.4 v -144.7 h 2077.8 2077.8 v 144.7 144.7 H 4227.5 2149.7 Z"
           id="path20" />
        <path
           inkscape:connector-curvature="0"
           d="M 7690.6,1615.1 C 7601.7,1429 7366,939 7165.5,523.5 6967,107.9 6778.9,-262.2 6747.9,-301.5 c -60,-74.4 -194.4,-144.7 -277.1,-146.8 -47.5,0 -80.6,-60 -390.8,-709.2 -186.1,-388.7 -337,-715.4 -337,-727.8 0,-10.3 244,-138.5 543.8,-281.2 l 545.8,-262.6 55.8,115.8 c 31,66.2 461,955.2 953.1,1978.6 l 897.3,1860.8 -434.2,212.9 c -239.8,115.8 -438.3,210.9 -442.4,210.9 -6.2,0.2 -82.7,-150.7 -171.6,-334.8 z"
           id="path22" />
        <path
           inkscape:connector-curvature="0"
           d="M 2149.7,895.7 V 750.9 h 2077.8 2077.8 v 144.7 144.7 H 4227.5 2149.7 Z"
           id="path24" />
        <path
           inkscape:connector-curvature="0"
           d="m 2149.7,-138.1 v -144.7 h 1962.1 1962.1 l -28.9,97.2 c -16.6,51.7 -29,117.9 -29,144.7 V 6.6 H 4082.8 2149.7 Z"
           id="path26" />
        <path
           inkscape:connector-curvature="0"
           d="m 5602.4,-2158.1 c 0,-10.3 -18.6,-285.3 -41.3,-616.1 -49.6,-740.2 -51.7,-843.5 -10.3,-878.7 22.7,-18.6 45.5,-20.7 78.6,-6.2 62,28.9 1079.2,953.1 1079.2,980 0,22.8 -1044.1,535.5 -1087.5,535.5 -10.4,0 -18.7,-6.2 -18.7,-14.5 z"
           id="path28" />
      </g>
    </g>
    <path
       style="fill:#87de87;stroke-width:0.05234178"
       d="m 3.5801752,294.47573 c -0.057577,-0.0122 -0.1572517,-0.0334 -0.221501,-0.047 -0.2854416,-0.0609 -0.2757465,0.15443 -0.2757465,-6.12204 0,-3.80467 0.018171,-5.82373 0.052956,-5.88877 0.073615,-0.13753 0.3686847,-0.20757 0.8761074,-0.20791 0.2527907,-1.7e-4 0.4318192,-0.022 0.4318192,-0.0525 0,-0.0288 0.094216,-0.0524 0.2093677,-0.0524 0.2054056,0 0.2093684,0.002 0.2093684,0.18802 0,0.10877 -0.044123,0.24412 -0.1046846,0.32111 -0.2421982,0.30791 -0.042205,0.74709 0.3402221,0.74709 0.3824206,0 0.5824193,-0.43918 0.3402209,-0.74709 -0.060558,-0.077 -0.1046832,-0.21234 -0.1046832,-0.32111 0,-0.18447 0.00391,-0.18802 0.2093666,-0.18802 0.1151512,0 0.2093664,0.0236 0.2093664,0.0524 0,0.0316 0.2180905,0.0524 0.5495891,0.0524 0.3314983,0 0.5495879,-0.0207 0.5495879,-0.0524 0,-0.0288 0.105992,-0.0524 0.2355403,-0.0524 h 0.2355374 v 0.211 c 0,0.13319 -0.027192,0.22146 -0.073721,0.2393 -0.108199,0.0415 -0.2049541,0.31245 -0.1664144,0.466 0.05387,0.21465 0.2161459,0.33992 0.4403791,0.33992 0.3907322,0 0.5741204,-0.40458 0.3318987,-0.73221 -0.066084,-0.0893 -0.1134085,-0.23073 -0.1134085,-0.33871 0,-0.18472 8.483e-4,-0.1853 0.2355383,-0.1853 0.1295452,0 0.2355391,0.0236 0.2355391,0.0524 0,0.0316 0.2180906,0.0524 0.5495882,0.0524 0.3314962,0 0.5495859,-0.0207 0.5495859,-0.0524 0,-0.0288 0.094219,-0.0524 0.2093671,-0.0524 h 0.2093684 v 0.23554 c 0,0.12953 -0.019784,0.23553 -0.043943,0.23553 -0.06358,0 -0.1654276,0.24469 -0.1654276,0.39741 0,0.34112 0.5337154,0.52447 0.7760034,0.26658 0.146018,-0.15544 0.150263,-0.44651 0.0092,-0.62593 -0.06056,-0.077 -0.104683,-0.21234 -0.104683,-0.32111 0,-0.18447 0.0039,-0.18802 0.209368,-0.18802 0.115152,0 0.209366,0.0236 0.209366,0.0524 0,0.0307 0.179029,0.0525 0.43182,0.0525 0.501238,3e-4 0.797742,0.0689 0.853033,0.19701 0.02149,0.0498 0.05021,0.46223 0.06384,0.91648 0.02336,0.77878 0.03038,0.82414 0.123166,0.79469 0.08872,-0.0282 0.09839,-4e-4 0.09839,0.27814 0,0.2891 -0.04234,0.39646 -0.646422,1.63921 -1.098522,2.25992 -1.130825,2.3505 -0.838222,2.3505 0.113661,0 0.199546,-0.14662 0.831866,-1.42008 l 0.705121,-1.42009 v 0.35366 c 0,0.34369 -0.01615,0.38675 -0.572927,1.52646 l -0.572926,1.1728 -0.244867,0.10831 c -0.244426,0.10813 -0.245701,0.11005 -0.709447,1.07085 -0.2555195,0.52938 -0.4645794,0.98612 -0.4645794,1.015 0,0.0288 0.3539444,0.22977 0.7865434,0.44644 l 0.786543,0.39392 0.543628,-1.1133 0.543625,-1.11331 0.0045,0.43314 c 0.004,0.39268 -0.01199,0.46598 -0.172602,0.78511 l -0.177146,0.35201 -0.01995,1.63233 -0.01995,1.63233 -0.126079,0.1342 -0.126081,0.13421 -4.0081049,-0.006 c -2.2044559,-0.002 -4.0552112,-0.0161 -4.1127883,-0.0283 z m 6.0885071,-1.22581 c 0.269852,-0.21227 1.4225367,-1.26674 1.4225367,-1.30134 0,-0.0513 -1.5651498,-0.81097 -1.5996183,-0.77651 -0.041338,0.0413 -0.1249487,1.1846 -0.1264207,1.72845 -0.00147,0.5092 0.039908,0.55674 0.3035023,0.3494 z m 0.4622997,-4.91622 -0.05589,-0.20937 H 7.2856279 4.4961557 v 0.20937 0.20937 h 2.8453544 2.8453539 z m 0.384478,-1.46557 v -0.20936 H 7.5058079 4.4961566 v 0.20936 0.20937 H 7.5058079 10.51546 Z m -0.01009,-1.47865 -0.01609,-0.22245 H 7.5058009 4.5223194 l -0.016088,0.22245 -0.016088,0.22244 h 3.0156735 3.0156691 z"
       id="path4266"
       inkscape:connector-curvature="0" />
  </g>
</svg>
